<?xml version="1.0" encoding="UTF-8" standalone="no"?>
<!DOCTYPE svg PUBLIC "-//W3C//DTD SVG 20010904//EN"
              "http://www.w3.org/TR/2001/REC-SVG-20010904/DTD/svg10.dtd">

<svg xmlns="http://www.w3.org/2000/svg"
     width="4.44444in" height="5.55556in"
     viewBox="0 0 400 500">
  <path id="lower-bubble"
        fill="white" stroke="none" stroke-width="1"
        d="M 241.00,327.24
           C 243.59,327.11 245.36,326.94 248.00,327.24
             286.66,328.55 294.52,381.67 260.00,395.52
             255.66,397.26 249.67,398.14 245.00,397.96
             214.11,396.75 199.50,358.87 221.18,337.18
             226.82,331.54 233.34,328.87 241.00,327.24 Z" />
  <path id="upper-bubble"
        fill="white" stroke="none" stroke-width="1"
        d="M 132.00,282.24
           C 134.59,282.11 136.36,281.94 139.00,282.24
             177.66,283.55 185.52,336.67 151.00,350.52
             146.66,352.26 140.67,353.14 136.00,352.96
             105.11,351.75 90.50,313.87 112.18,292.18
             117.82,286.54 124.34,283.87 132.00,282.24 Z" />
  <path id="solution"
        fill="none" stroke="white" stroke-width="70"
        d="M 58.41,250.01
           C 58.41,250.01 341.54,250.00 341.54,250.00" />
  <path id="bottle"
        fill="none" stroke="white" stroke-width="70"
        d="M 250.75,50.13
           C 250.75,50.13 250.00,159.00 250.00,159.00
             262.75,161.31 284.87,175.32 295.00,183.61
             343.59,223.38 361.90,288.56 342.33,348.00
             327.66,392.56 290.87,429.07 246.00,442.98
             228.32,448.45 212.40,450.21 194.00,450.00
             158.46,449.58 117.74,431.27 93.09,405.96
             79.68,392.20 68.97,375.64 61.43,358.00
             52.78,337.77 49.75,315.83 50.00,294.00
             50.42,258.02 68.23,219.56 93.09,194.04
             93.09,194.04 108.00,181.21 108.00,181.21
             117.28,173.90 138.56,161.07 150.00,159.00
             150.00,159.00 149.91,50.13 149.91,50.13M 75.77,50.12
           C 75.77,50.12 325.75,50.12 325.75,50.12" />
</svg>
